<mxfile host="app.diagrams.net" modified="2023-07-06T11:24:22.876Z" agent="Mozilla/5.0 (Windows NT 10.0; Win64; x64) AppleWebKit/537.36 (KHTML, like Gecko) Chrome/114.0.0.0 Safari/537.36" etag="zk6moX5oSUdB7nWgVVg9" version="21.5.2" type="device">
  <diagram id="R2lEEEUBdFMjLlhIrx00" name="Page-1">
    <mxGraphModel dx="2537" dy="832" grid="1" gridSize="10" guides="1" tooltips="1" connect="1" arrows="1" fold="1" page="1" pageScale="1" pageWidth="850" pageHeight="1100" math="0" shadow="0" extFonts="Permanent Marker^https://fonts.googleapis.com/css?family=Permanent+Marker">
      <root>
        <mxCell id="0" />
        <mxCell id="1" parent="0" />
        <mxCell id="88gnVnNSPqZ6muaHjuTf-68" style="edgeStyle=orthogonalEdgeStyle;rounded=0;orthogonalLoop=1;jettySize=auto;html=1;entryX=0;entryY=0.5;entryDx=0;entryDy=0;" edge="1" parent="1" source="88gnVnNSPqZ6muaHjuTf-9" target="88gnVnNSPqZ6muaHjuTf-13">
          <mxGeometry relative="1" as="geometry">
            <mxPoint x="260" y="160" as="targetPoint" />
          </mxGeometry>
        </mxCell>
        <mxCell id="88gnVnNSPqZ6muaHjuTf-71" style="edgeStyle=orthogonalEdgeStyle;rounded=0;orthogonalLoop=1;jettySize=auto;html=1;entryX=0.5;entryY=0;entryDx=0;entryDy=0;" edge="1" parent="1" source="88gnVnNSPqZ6muaHjuTf-9" target="88gnVnNSPqZ6muaHjuTf-17">
          <mxGeometry relative="1" as="geometry" />
        </mxCell>
        <mxCell id="88gnVnNSPqZ6muaHjuTf-73" style="edgeStyle=orthogonalEdgeStyle;rounded=0;orthogonalLoop=1;jettySize=auto;html=1;entryX=0;entryY=0.5;entryDx=0;entryDy=0;exitX=0;exitY=0.5;exitDx=0;exitDy=0;" edge="1" parent="1" source="88gnVnNSPqZ6muaHjuTf-9" target="88gnVnNSPqZ6muaHjuTf-38">
          <mxGeometry relative="1" as="geometry">
            <mxPoint x="-180" y="170" as="sourcePoint" />
            <Array as="points">
              <mxPoint x="-330" y="170" />
              <mxPoint x="-330" y="700" />
              <mxPoint x="240" y="700" />
              <mxPoint x="240" y="340" />
            </Array>
          </mxGeometry>
        </mxCell>
        <mxCell id="88gnVnNSPqZ6muaHjuTf-9" value="Doctor&lt;br&gt;" style="rounded=1;whiteSpace=wrap;html=1;" vertex="1" parent="1">
          <mxGeometry x="-160" y="140" width="120" height="60" as="geometry" />
        </mxCell>
        <mxCell id="88gnVnNSPqZ6muaHjuTf-34" style="edgeStyle=orthogonalEdgeStyle;rounded=0;orthogonalLoop=1;jettySize=auto;html=1;" edge="1" parent="1" source="88gnVnNSPqZ6muaHjuTf-10" target="88gnVnNSPqZ6muaHjuTf-9">
          <mxGeometry relative="1" as="geometry" />
        </mxCell>
        <mxCell id="88gnVnNSPqZ6muaHjuTf-10" value="Doctor Id" style="ellipse;whiteSpace=wrap;html=1;" vertex="1" parent="1">
          <mxGeometry x="-240" y="10" width="100" height="50" as="geometry" />
        </mxCell>
        <mxCell id="88gnVnNSPqZ6muaHjuTf-35" style="edgeStyle=orthogonalEdgeStyle;rounded=0;orthogonalLoop=1;jettySize=auto;html=1;entryX=0.75;entryY=0;entryDx=0;entryDy=0;" edge="1" parent="1" source="88gnVnNSPqZ6muaHjuTf-11" target="88gnVnNSPqZ6muaHjuTf-9">
          <mxGeometry relative="1" as="geometry" />
        </mxCell>
        <mxCell id="88gnVnNSPqZ6muaHjuTf-11" value="personal details" style="ellipse;whiteSpace=wrap;html=1;" vertex="1" parent="1">
          <mxGeometry x="-60" y="20" width="100" height="50" as="geometry" />
        </mxCell>
        <mxCell id="88gnVnNSPqZ6muaHjuTf-31" style="edgeStyle=orthogonalEdgeStyle;rounded=0;orthogonalLoop=1;jettySize=auto;html=1;entryX=0.25;entryY=1;entryDx=0;entryDy=0;" edge="1" parent="1" source="88gnVnNSPqZ6muaHjuTf-12" target="88gnVnNSPqZ6muaHjuTf-17">
          <mxGeometry relative="1" as="geometry" />
        </mxCell>
        <mxCell id="88gnVnNSPqZ6muaHjuTf-12" value="Patient name" style="ellipse;whiteSpace=wrap;html=1;" vertex="1" parent="1">
          <mxGeometry x="-20" y="480" width="100" height="50" as="geometry" />
        </mxCell>
        <mxCell id="88gnVnNSPqZ6muaHjuTf-76" style="edgeStyle=orthogonalEdgeStyle;rounded=0;orthogonalLoop=1;jettySize=auto;html=1;" edge="1" parent="1" source="88gnVnNSPqZ6muaHjuTf-13" target="88gnVnNSPqZ6muaHjuTf-62">
          <mxGeometry relative="1" as="geometry" />
        </mxCell>
        <mxCell id="88gnVnNSPqZ6muaHjuTf-95" style="edgeStyle=orthogonalEdgeStyle;rounded=0;orthogonalLoop=1;jettySize=auto;html=1;entryX=0.917;entryY=0.025;entryDx=0;entryDy=0;entryPerimeter=0;" edge="1" parent="1" source="88gnVnNSPqZ6muaHjuTf-96" target="88gnVnNSPqZ6muaHjuTf-17">
          <mxGeometry relative="1" as="geometry">
            <Array as="points">
              <mxPoint x="-50" y="270" />
            </Array>
          </mxGeometry>
        </mxCell>
        <mxCell id="88gnVnNSPqZ6muaHjuTf-13" value="Patien" style="rounded=1;whiteSpace=wrap;html=1;" vertex="1" parent="1">
          <mxGeometry x="270" y="140" width="120" height="60" as="geometry" />
        </mxCell>
        <mxCell id="88gnVnNSPqZ6muaHjuTf-37" style="edgeStyle=orthogonalEdgeStyle;rounded=0;orthogonalLoop=1;jettySize=auto;html=1;entryX=0.75;entryY=0;entryDx=0;entryDy=0;" edge="1" parent="1" source="88gnVnNSPqZ6muaHjuTf-14" target="88gnVnNSPqZ6muaHjuTf-13">
          <mxGeometry relative="1" as="geometry" />
        </mxCell>
        <mxCell id="88gnVnNSPqZ6muaHjuTf-14" value="patient id" style="ellipse;whiteSpace=wrap;html=1;" vertex="1" parent="1">
          <mxGeometry x="350" y="20" width="100" height="50" as="geometry" />
        </mxCell>
        <mxCell id="88gnVnNSPqZ6muaHjuTf-36" style="edgeStyle=orthogonalEdgeStyle;rounded=0;orthogonalLoop=1;jettySize=auto;html=1;entryX=0.5;entryY=0;entryDx=0;entryDy=0;" edge="1" parent="1" source="88gnVnNSPqZ6muaHjuTf-16" target="88gnVnNSPqZ6muaHjuTf-13">
          <mxGeometry relative="1" as="geometry" />
        </mxCell>
        <mxCell id="88gnVnNSPqZ6muaHjuTf-16" value="personal details" style="ellipse;whiteSpace=wrap;html=1;" vertex="1" parent="1">
          <mxGeometry x="180" y="10" width="100" height="50" as="geometry" />
        </mxCell>
        <mxCell id="88gnVnNSPqZ6muaHjuTf-17" value="Appointment" style="rounded=1;whiteSpace=wrap;html=1;" vertex="1" parent="1">
          <mxGeometry x="-160" y="350" width="120" height="60" as="geometry" />
        </mxCell>
        <mxCell id="88gnVnNSPqZ6muaHjuTf-30" style="edgeStyle=orthogonalEdgeStyle;rounded=0;orthogonalLoop=1;jettySize=auto;html=1;entryX=0.183;entryY=1.05;entryDx=0;entryDy=0;entryPerimeter=0;" edge="1" parent="1" source="88gnVnNSPqZ6muaHjuTf-18" target="88gnVnNSPqZ6muaHjuTf-17">
          <mxGeometry relative="1" as="geometry" />
        </mxCell>
        <mxCell id="88gnVnNSPqZ6muaHjuTf-18" value="patient ID" style="ellipse;whiteSpace=wrap;html=1;" vertex="1" parent="1">
          <mxGeometry x="-210" y="600" width="100" height="50" as="geometry" />
        </mxCell>
        <mxCell id="88gnVnNSPqZ6muaHjuTf-32" style="edgeStyle=orthogonalEdgeStyle;rounded=0;orthogonalLoop=1;jettySize=auto;html=1;entryX=1;entryY=0.5;entryDx=0;entryDy=0;" edge="1" parent="1" source="88gnVnNSPqZ6muaHjuTf-19" target="88gnVnNSPqZ6muaHjuTf-17">
          <mxGeometry relative="1" as="geometry">
            <mxPoint x="260" y="400" as="targetPoint" />
            <Array as="points">
              <mxPoint x="90" y="405" />
              <mxPoint x="-5" y="405" />
              <mxPoint x="-5" y="400" />
              <mxPoint x="-10" y="400" />
              <mxPoint x="-10" y="380" />
            </Array>
          </mxGeometry>
        </mxCell>
        <mxCell id="88gnVnNSPqZ6muaHjuTf-19" value="doctor" style="ellipse;whiteSpace=wrap;html=1;" vertex="1" parent="1">
          <mxGeometry x="90" y="450" width="100" height="50" as="geometry" />
        </mxCell>
        <mxCell id="88gnVnNSPqZ6muaHjuTf-29" style="edgeStyle=orthogonalEdgeStyle;rounded=0;orthogonalLoop=1;jettySize=auto;html=1;entryX=0;entryY=1;entryDx=0;entryDy=0;" edge="1" parent="1" source="88gnVnNSPqZ6muaHjuTf-20" target="88gnVnNSPqZ6muaHjuTf-17">
          <mxGeometry relative="1" as="geometry" />
        </mxCell>
        <mxCell id="88gnVnNSPqZ6muaHjuTf-20" value="Appointment number" style="ellipse;whiteSpace=wrap;html=1;" vertex="1" parent="1">
          <mxGeometry x="-320" y="470" width="100" height="50" as="geometry" />
        </mxCell>
        <mxCell id="88gnVnNSPqZ6muaHjuTf-33" style="edgeStyle=orthogonalEdgeStyle;rounded=0;orthogonalLoop=1;jettySize=auto;html=1;entryX=1;entryY=0.25;entryDx=0;entryDy=0;" edge="1" parent="1" source="88gnVnNSPqZ6muaHjuTf-21" target="88gnVnNSPqZ6muaHjuTf-17">
          <mxGeometry relative="1" as="geometry" />
        </mxCell>
        <mxCell id="88gnVnNSPqZ6muaHjuTf-21" value="location" style="ellipse;whiteSpace=wrap;html=1;" vertex="1" parent="1">
          <mxGeometry x="110" y="360" width="100" height="50" as="geometry" />
        </mxCell>
        <mxCell id="88gnVnNSPqZ6muaHjuTf-25" style="edgeStyle=orthogonalEdgeStyle;rounded=0;orthogonalLoop=1;jettySize=auto;html=1;entryX=0;entryY=0.5;entryDx=0;entryDy=0;" edge="1" parent="1" source="88gnVnNSPqZ6muaHjuTf-22" target="88gnVnNSPqZ6muaHjuTf-17">
          <mxGeometry relative="1" as="geometry" />
        </mxCell>
        <mxCell id="88gnVnNSPqZ6muaHjuTf-22" value="Time/ Date" style="ellipse;whiteSpace=wrap;html=1;" vertex="1" parent="1">
          <mxGeometry x="-320" y="310" width="100" height="50" as="geometry" />
        </mxCell>
        <mxCell id="88gnVnNSPqZ6muaHjuTf-26" style="edgeStyle=orthogonalEdgeStyle;rounded=0;orthogonalLoop=1;jettySize=auto;html=1;entryX=0;entryY=0.75;entryDx=0;entryDy=0;" edge="1" parent="1" source="88gnVnNSPqZ6muaHjuTf-24" target="88gnVnNSPqZ6muaHjuTf-17">
          <mxGeometry relative="1" as="geometry" />
        </mxCell>
        <mxCell id="88gnVnNSPqZ6muaHjuTf-24" value="contact number" style="ellipse;whiteSpace=wrap;html=1;" vertex="1" parent="1">
          <mxGeometry x="-320" y="410" width="100" height="50" as="geometry" />
        </mxCell>
        <mxCell id="88gnVnNSPqZ6muaHjuTf-38" value="Diagnosis&amp;nbsp;" style="rounded=1;whiteSpace=wrap;html=1;" vertex="1" parent="1">
          <mxGeometry x="660" y="310" width="120" height="60" as="geometry" />
        </mxCell>
        <mxCell id="88gnVnNSPqZ6muaHjuTf-79" style="edgeStyle=orthogonalEdgeStyle;rounded=0;orthogonalLoop=1;jettySize=auto;html=1;" edge="1" parent="1" source="88gnVnNSPqZ6muaHjuTf-39" target="88gnVnNSPqZ6muaHjuTf-40">
          <mxGeometry relative="1" as="geometry" />
        </mxCell>
        <mxCell id="88gnVnNSPqZ6muaHjuTf-87" style="edgeStyle=orthogonalEdgeStyle;rounded=0;orthogonalLoop=1;jettySize=auto;html=1;" edge="1" parent="1" source="88gnVnNSPqZ6muaHjuTf-39" target="88gnVnNSPqZ6muaHjuTf-41">
          <mxGeometry relative="1" as="geometry" />
        </mxCell>
        <mxCell id="88gnVnNSPqZ6muaHjuTf-39" value="Admitted&amp;nbsp; patient" style="rounded=1;whiteSpace=wrap;html=1;" vertex="1" parent="1">
          <mxGeometry x="870" y="70" width="120" height="60" as="geometry" />
        </mxCell>
        <mxCell id="88gnVnNSPqZ6muaHjuTf-88" style="edgeStyle=orthogonalEdgeStyle;rounded=0;orthogonalLoop=1;jettySize=auto;html=1;" edge="1" parent="1" source="88gnVnNSPqZ6muaHjuTf-40" target="88gnVnNSPqZ6muaHjuTf-41">
          <mxGeometry relative="1" as="geometry">
            <Array as="points">
              <mxPoint x="1080" y="210" />
              <mxPoint x="1430" y="210" />
            </Array>
          </mxGeometry>
        </mxCell>
        <mxCell id="88gnVnNSPqZ6muaHjuTf-94" style="edgeStyle=orthogonalEdgeStyle;rounded=0;orthogonalLoop=1;jettySize=auto;html=1;entryX=0.5;entryY=1;entryDx=0;entryDy=0;" edge="1" parent="1" source="88gnVnNSPqZ6muaHjuTf-40" target="88gnVnNSPqZ6muaHjuTf-92">
          <mxGeometry relative="1" as="geometry">
            <Array as="points">
              <mxPoint x="1000" y="450" />
              <mxPoint x="1590" y="450" />
            </Array>
          </mxGeometry>
        </mxCell>
        <mxCell id="88gnVnNSPqZ6muaHjuTf-40" value="Ward&amp;nbsp;" style="rounded=1;whiteSpace=wrap;html=1;" vertex="1" parent="1">
          <mxGeometry x="990" y="250" width="120" height="60" as="geometry" />
        </mxCell>
        <mxCell id="88gnVnNSPqZ6muaHjuTf-41" value="Nurse&amp;nbsp;" style="rounded=1;whiteSpace=wrap;html=1;" vertex="1" parent="1">
          <mxGeometry x="1370" y="70" width="120" height="60" as="geometry" />
        </mxCell>
        <mxCell id="88gnVnNSPqZ6muaHjuTf-63" style="edgeStyle=orthogonalEdgeStyle;rounded=0;orthogonalLoop=1;jettySize=auto;html=1;entryX=-0.025;entryY=0.117;entryDx=0;entryDy=0;entryPerimeter=0;" edge="1" parent="1" source="88gnVnNSPqZ6muaHjuTf-57" target="88gnVnNSPqZ6muaHjuTf-62">
          <mxGeometry relative="1" as="geometry" />
        </mxCell>
        <mxCell id="88gnVnNSPqZ6muaHjuTf-57" value="Payment Id" style="ellipse;whiteSpace=wrap;html=1;" vertex="1" parent="1">
          <mxGeometry x="510" y="20" width="100" height="50" as="geometry" />
        </mxCell>
        <mxCell id="88gnVnNSPqZ6muaHjuTf-66" style="edgeStyle=orthogonalEdgeStyle;rounded=0;orthogonalLoop=1;jettySize=auto;html=1;entryX=0.25;entryY=1;entryDx=0;entryDy=0;" edge="1" parent="1" source="88gnVnNSPqZ6muaHjuTf-58" target="88gnVnNSPqZ6muaHjuTf-38">
          <mxGeometry relative="1" as="geometry" />
        </mxCell>
        <mxCell id="88gnVnNSPqZ6muaHjuTf-58" value="patient details" style="ellipse;whiteSpace=wrap;html=1;" vertex="1" parent="1">
          <mxGeometry x="690" y="480" width="100" height="50" as="geometry" />
        </mxCell>
        <mxCell id="88gnVnNSPqZ6muaHjuTf-67" style="edgeStyle=orthogonalEdgeStyle;rounded=0;orthogonalLoop=1;jettySize=auto;html=1;entryX=0.75;entryY=1;entryDx=0;entryDy=0;" edge="1" parent="1" source="88gnVnNSPqZ6muaHjuTf-59" target="88gnVnNSPqZ6muaHjuTf-38">
          <mxGeometry relative="1" as="geometry">
            <mxPoint x="810" y="470" as="targetPoint" />
            <Array as="points">
              <mxPoint x="950" y="390" />
              <mxPoint x="780" y="390" />
              <mxPoint x="780" y="370" />
            </Array>
          </mxGeometry>
        </mxCell>
        <mxCell id="88gnVnNSPqZ6muaHjuTf-59" value="L appointment ID" style="ellipse;whiteSpace=wrap;html=1;" vertex="1" parent="1">
          <mxGeometry x="870" y="400" width="100" height="50" as="geometry" />
        </mxCell>
        <mxCell id="88gnVnNSPqZ6muaHjuTf-65" style="edgeStyle=orthogonalEdgeStyle;rounded=0;orthogonalLoop=1;jettySize=auto;html=1;entryX=0;entryY=0.75;entryDx=0;entryDy=0;" edge="1" parent="1" source="88gnVnNSPqZ6muaHjuTf-60" target="88gnVnNSPqZ6muaHjuTf-38">
          <mxGeometry relative="1" as="geometry" />
        </mxCell>
        <mxCell id="88gnVnNSPqZ6muaHjuTf-60" value="deagnosis ID" style="ellipse;whiteSpace=wrap;html=1;" vertex="1" parent="1">
          <mxGeometry x="570" y="460" width="100" height="50" as="geometry" />
        </mxCell>
        <mxCell id="88gnVnNSPqZ6muaHjuTf-64" style="edgeStyle=orthogonalEdgeStyle;rounded=0;orthogonalLoop=1;jettySize=auto;html=1;entryX=0.5;entryY=0;entryDx=0;entryDy=0;" edge="1" parent="1" source="88gnVnNSPqZ6muaHjuTf-61" target="88gnVnNSPqZ6muaHjuTf-62">
          <mxGeometry relative="1" as="geometry" />
        </mxCell>
        <mxCell id="88gnVnNSPqZ6muaHjuTf-61" value="Mode of&amp;nbsp; payment" style="ellipse;whiteSpace=wrap;html=1;" vertex="1" parent="1">
          <mxGeometry x="650" y="20" width="100" height="50" as="geometry" />
        </mxCell>
        <mxCell id="88gnVnNSPqZ6muaHjuTf-77" style="edgeStyle=orthogonalEdgeStyle;rounded=0;orthogonalLoop=1;jettySize=auto;html=1;entryX=0;entryY=0.5;entryDx=0;entryDy=0;" edge="1" parent="1" source="88gnVnNSPqZ6muaHjuTf-62" target="88gnVnNSPqZ6muaHjuTf-39">
          <mxGeometry relative="1" as="geometry" />
        </mxCell>
        <mxCell id="88gnVnNSPqZ6muaHjuTf-62" value="payment" style="rounded=1;whiteSpace=wrap;html=1;" vertex="1" parent="1">
          <mxGeometry x="630" y="140" width="120" height="60" as="geometry" />
        </mxCell>
        <mxCell id="88gnVnNSPqZ6muaHjuTf-70" value="treats" style="rhombus;whiteSpace=wrap;html=1;" vertex="1" parent="1">
          <mxGeometry x="50" y="130" width="80" height="80" as="geometry" />
        </mxCell>
        <mxCell id="88gnVnNSPqZ6muaHjuTf-72" value="Innolve" style="rhombus;whiteSpace=wrap;html=1;" vertex="1" parent="1">
          <mxGeometry x="-140" y="240" width="80" height="80" as="geometry" />
        </mxCell>
        <mxCell id="88gnVnNSPqZ6muaHjuTf-74" value="record" style="rhombus;whiteSpace=wrap;html=1;" vertex="1" parent="1">
          <mxGeometry x="270" y="300" width="80" height="80" as="geometry" />
        </mxCell>
        <mxCell id="88gnVnNSPqZ6muaHjuTf-85" style="edgeStyle=orthogonalEdgeStyle;rounded=0;orthogonalLoop=1;jettySize=auto;html=1;entryX=1;entryY=0.25;entryDx=0;entryDy=0;" edge="1" parent="1" source="88gnVnNSPqZ6muaHjuTf-80" target="88gnVnNSPqZ6muaHjuTf-40">
          <mxGeometry relative="1" as="geometry" />
        </mxCell>
        <mxCell id="88gnVnNSPqZ6muaHjuTf-80" value="name" style="ellipse;whiteSpace=wrap;html=1;" vertex="1" parent="1">
          <mxGeometry x="1200" y="260" width="100" height="50" as="geometry" />
        </mxCell>
        <mxCell id="88gnVnNSPqZ6muaHjuTf-84" style="edgeStyle=orthogonalEdgeStyle;rounded=0;orthogonalLoop=1;jettySize=auto;html=1;entryX=0.902;entryY=1.006;entryDx=0;entryDy=0;entryPerimeter=0;" edge="1" parent="1" source="88gnVnNSPqZ6muaHjuTf-81" target="88gnVnNSPqZ6muaHjuTf-40">
          <mxGeometry relative="1" as="geometry" />
        </mxCell>
        <mxCell id="88gnVnNSPqZ6muaHjuTf-81" value="ward id" style="ellipse;whiteSpace=wrap;html=1;" vertex="1" parent="1">
          <mxGeometry x="1220" y="330" width="100" height="50" as="geometry" />
        </mxCell>
        <mxCell id="88gnVnNSPqZ6muaHjuTf-83" style="edgeStyle=orthogonalEdgeStyle;rounded=0;orthogonalLoop=1;jettySize=auto;html=1;" edge="1" parent="1" source="88gnVnNSPqZ6muaHjuTf-82" target="88gnVnNSPqZ6muaHjuTf-40">
          <mxGeometry relative="1" as="geometry" />
        </mxCell>
        <mxCell id="88gnVnNSPqZ6muaHjuTf-82" value="Floor" style="ellipse;whiteSpace=wrap;html=1;" vertex="1" parent="1">
          <mxGeometry x="1010" y="370" width="100" height="50" as="geometry" />
        </mxCell>
        <mxCell id="88gnVnNSPqZ6muaHjuTf-89" value="is assigned" style="rhombus;whiteSpace=wrap;html=1;" vertex="1" parent="1">
          <mxGeometry x="1120" y="60" width="80" height="80" as="geometry" />
        </mxCell>
        <mxCell id="88gnVnNSPqZ6muaHjuTf-91" style="edgeStyle=orthogonalEdgeStyle;rounded=0;orthogonalLoop=1;jettySize=auto;html=1;entryX=1;entryY=0.75;entryDx=0;entryDy=0;" edge="1" parent="1" source="88gnVnNSPqZ6muaHjuTf-90" target="88gnVnNSPqZ6muaHjuTf-41">
          <mxGeometry relative="1" as="geometry" />
        </mxCell>
        <mxCell id="88gnVnNSPqZ6muaHjuTf-93" style="edgeStyle=orthogonalEdgeStyle;rounded=0;orthogonalLoop=1;jettySize=auto;html=1;entryX=0.5;entryY=0;entryDx=0;entryDy=0;exitX=1;exitY=0.5;exitDx=0;exitDy=0;" edge="1" parent="1" source="88gnVnNSPqZ6muaHjuTf-90" target="88gnVnNSPqZ6muaHjuTf-92">
          <mxGeometry relative="1" as="geometry" />
        </mxCell>
        <mxCell id="88gnVnNSPqZ6muaHjuTf-90" value="Isa" style="triangle;whiteSpace=wrap;html=1;rotation=0;" vertex="1" parent="1">
          <mxGeometry x="1500" y="170" width="60" height="80" as="geometry" />
        </mxCell>
        <mxCell id="88gnVnNSPqZ6muaHjuTf-92" value="head Nurse" style="rounded=1;whiteSpace=wrap;html=1;" vertex="1" parent="1">
          <mxGeometry x="1530" y="290" width="120" height="60" as="geometry" />
        </mxCell>
        <mxCell id="88gnVnNSPqZ6muaHjuTf-97" value="" style="edgeStyle=orthogonalEdgeStyle;rounded=0;orthogonalLoop=1;jettySize=auto;html=1;entryX=0.917;entryY=0.025;entryDx=0;entryDy=0;entryPerimeter=0;" edge="1" parent="1" source="88gnVnNSPqZ6muaHjuTf-13" target="88gnVnNSPqZ6muaHjuTf-96">
          <mxGeometry relative="1" as="geometry">
            <mxPoint x="330" y="200" as="sourcePoint" />
            <mxPoint x="-50" y="352" as="targetPoint" />
            <Array as="points">
              <mxPoint x="330" y="270" />
            </Array>
          </mxGeometry>
        </mxCell>
        <mxCell id="88gnVnNSPqZ6muaHjuTf-96" value="" style="rhombus;whiteSpace=wrap;html=1;" vertex="1" parent="1">
          <mxGeometry x="60" y="240" width="80" height="80" as="geometry" />
        </mxCell>
        <mxCell id="88gnVnNSPqZ6muaHjuTf-98" value="make" style="rhombus;whiteSpace=wrap;html=1;" vertex="1" parent="1">
          <mxGeometry x="65" y="250" width="70" height="60" as="geometry" />
        </mxCell>
      </root>
    </mxGraphModel>
  </diagram>
</mxfile>
